<svg width="24" height="24" viewBox="0 0 24 24" fill="none" xmlns="http://www.w3.org/2000/svg">
<g clip-path="url(#clip0_29_3031)">
<path d="M17.1375 11.43H15.9975V10.29H14.8575V9.14251H13.71V8.00251H12.57V6.85501H11.43V5.71501H10.2825V4.57501H9.14249V18.285H10.2825V17.145H11.43V16.005H12.57V14.8575H13.71V13.7175H18.285V12.57H17.1375V11.43ZM11.43 13.7175H10.2825V9.14251H11.43V13.7175Z" fill="black"/>
<path d="M22.8525 9.14249H24V14.8575H22.8525V9.14249Z" fill="black"/>
<path d="M21.7125 14.8575H22.8525V17.145H21.7125V14.8575Z" fill="black"/>
<path d="M21.7125 6.85501H22.8525V9.14251H21.7125V6.85501Z" fill="black"/>
<path d="M20.5725 17.145H21.7125V19.4325H20.5725V17.145Z" fill="black"/>
<path d="M20.5725 4.57501H21.7125V6.85501H20.5725V4.57501Z" fill="black"/>
<path d="M19.425 19.4325H20.5725V20.5725H19.425V19.4325Z" fill="black"/>
<path d="M19.425 3.42749H20.5725V4.57499H19.425V3.42749Z" fill="black"/>
<path d="M17.1375 20.5725H19.425V21.7125H17.1375V20.5725Z" fill="black"/>
<path d="M17.1375 2.28751H19.425V3.42751H17.1375V2.28751Z" fill="black"/>
<path d="M14.8575 21.7125H17.1375V22.86H14.8575V21.7125Z" fill="black"/>
<path d="M14.8575 1.14749H17.1375V2.28749H14.8575V1.14749Z" fill="black"/>
<path d="M9.14249 22.86H14.8575V24H9.14249V22.86Z" fill="black"/>
<path d="M9.14249 0H14.8575V1.1475H9.14249V0Z" fill="black"/>
<path d="M6.85501 21.7125H9.14251V22.86H6.85501V21.7125Z" fill="black"/>
<path d="M6.85501 1.14749H9.14251V2.28749H6.85501V1.14749Z" fill="black"/>
<path d="M4.5675 20.5725H6.855V21.7125H4.5675V20.5725Z" fill="black"/>
<path d="M4.5675 2.28751H6.855V3.42751H4.5675V2.28751Z" fill="black"/>
<path d="M3.42749 19.4325H4.56749V20.5725H3.42749V19.4325Z" fill="black"/>
<path d="M3.42749 3.42749H4.56749V4.57499H3.42749V3.42749Z" fill="black"/>
<path d="M2.28 17.145H3.4275V19.4325H2.28V17.145Z" fill="black"/>
<path d="M2.28 4.57501H3.4275V6.85501H2.28V4.57501Z" fill="black"/>
<path d="M1.14001 14.8575H2.28001V17.145H1.14001V14.8575Z" fill="black"/>
<path d="M1.14001 6.85501H2.28001V9.14251H1.14001V6.85501Z" fill="black"/>
<path d="M0 9.14249H1.14V14.8575H0V9.14249Z" fill="black"/>
</g>
<defs>
<clipPath id="clip0_29_3031">
<rect width="24" height="24" fill="white"/>
</clipPath>
</defs>
</svg>
