<svg width="81" height="64" viewBox="0 0 81 64" fill="none" xmlns="http://www.w3.org/2000/svg">
<g clip-path="url(#clip0_10_2174)">
<path fill-rule="evenodd" clip-rule="evenodd" d="M26.7516 55.3602C14.1863 55.3602 4 44.9822 4 32.1799C4 19.3775 14.1863 9 26.7516 9C28.3881 9 29.9835 9.17923 31.522 9.51367L36.5991 19.8053C33.963 18.0038 30.8063 16.8917 27.3631 16.7704C27.1546 16.7625 26.9451 16.7584 26.7345 16.7584V16.7604C18.3789 16.77 11.6082 23.7088 11.6082 32.224C11.6082 40.7453 18.3882 47.6982 26.7516 47.6982C33.8205 47.6982 39.7575 42.4104 41.4265 36.1811H25.2786V28.1719H40.7966L47.4561 41.734C43.8692 49.7338 35.948 55.3602 26.7516 55.3602Z" fill="#333333"/>
<path fill-rule="evenodd" clip-rule="evenodd" d="M54.8146 55.2296L50.3968 46.2954L68.4566 9.48352H77.3336L54.8146 55.2296Z" fill="#333333"/>
</g>
<defs>
<clipPath id="clip0_10_2174">
<rect width="73.3333" height="46.3602" fill="white" transform="translate(4 9)"/>
</clipPath>
</defs>
</svg>
