<svg width="109" height="64" viewBox="0 0 109 64" fill="none" xmlns="http://www.w3.org/2000/svg">
<g clip-path="url(#clip0_11_2262)">
<path fill-rule="evenodd" clip-rule="evenodd" d="M104.228 35.0401H90.6831C91.0024 38.2892 93.372 39.3329 96.0608 39.3329C98.817 39.3329 101.035 38.7101 102.867 37.7336V43.3228C100.542 44.6627 97.8826 45.3054 95.2038 45.1746C88.4647 45.1746 83.7256 40.9659 83.7256 32.5822C83.7256 25.5284 87.7421 19.9224 94.3131 19.9224C100.901 19.9224 104.329 25.4442 104.329 32.5485C104.329 33.2219 104.262 34.6697 104.228 35.0401ZM94.2795 25.5789C92.5485 25.5789 90.6327 26.8079 90.6327 29.9223H97.775C97.775 26.8079 95.9768 25.5789 94.2795 25.5789ZM72.8188 45.1746C70.3988 45.1746 68.9199 44.1645 67.9451 43.4238L67.9115 51.2183L60.9876 52.6829V20.377H67.3065L67.441 22.0941C68.9066 20.7015 70.8491 19.9244 72.8692 19.9224C77.7428 19.9224 82.3139 24.2995 82.3139 32.3802C82.3139 41.1848 77.7764 45.1746 72.8188 45.1746ZM71.2222 26.0671C69.6257 26.0671 68.6342 26.6395 67.9115 27.4308L67.9451 37.7336C68.6174 38.4744 69.5921 39.0468 71.2222 39.0468C73.7767 39.0468 75.4908 36.269 75.4908 32.5317C75.4908 28.9122 73.7431 26.0671 71.2222 26.0671ZM51.4589 20.377H58.3996V44.6864H51.4589V20.377ZM51.4589 12.4646L58.3996 11V16.6565L51.4589 18.1379V12.4815V12.4646ZM44.1989 28.2052V44.6864H37.275V20.377H43.4931L43.6947 22.4308C45.3753 19.4511 48.854 20.0571 49.7783 20.377V26.7574C48.9045 26.4712 45.9299 26.0335 44.1989 28.2052ZM29.8301 36.1512C29.8301 40.242 34.1996 38.9794 35.0735 38.6091V44.2655C34.1492 44.7706 32.4854 45.1746 30.2167 45.1746C29.2711 45.2023 28.3298 45.0369 27.45 44.6886C26.5702 44.3403 25.7704 43.8164 25.0991 43.1487C24.4279 42.481 23.8992 41.6835 23.5454 40.8046C23.1915 39.9258 23.0198 38.9841 23.0407 38.0367L23.0575 15.8653L29.8133 14.4175V20.377H35.0903V26.3197H29.8301V36.168V36.1512ZM21.5786 37.3296C21.5786 42.3295 17.6965 45.1746 11.949 45.1746C9.36991 45.1727 6.81871 44.6398 4.45375 43.609V36.9929C6.77292 38.2555 9.66347 39.1983 11.949 39.1983C13.4951 39.1983 14.5203 38.7942 14.5203 37.5148C14.5203 34.1815 4 35.4273 4 27.7506C4 22.8517 7.83167 19.9224 13.4447 19.9224C15.7303 19.9224 18.0158 20.2591 20.3182 21.185V27.7169C18.1905 26.5952 15.8317 25.9843 13.4279 25.9325C11.9826 25.9325 11.0079 26.3533 11.0079 27.4476C11.0079 30.562 21.5786 29.0806 21.5786 37.3464V37.3296Z" fill="#333333"/>
</g>
<defs>
<clipPath id="clip0_11_2262">
<rect width="100.833" height="42.087" fill="white" transform="translate(4 11)"/>
</clipPath>
</defs>
</svg>
