<svg width="24" height="24" viewBox="0 0 24 24" fill="none" xmlns="http://www.w3.org/2000/svg">
<path d="M1.14 18.285H22.8525V19.425H24V17.145H21.7125V4.56749H20.565V17.145H19.425V15.9975H18.285V17.145H11.4225V15.9975H10.2825V17.145H9.1425V4.56749H20.565V3.42749H3.4275V4.56749H7.995V9.14249H3.4275V4.56749H2.28V17.145H0V19.425H1.14V18.285ZM3.4275 11.43H7.995V15.9975H3.4275V11.43Z" fill="black"/>
<path d="M1.14001 19.425H22.8525V20.5725H1.14001V19.425Z" fill="black"/>
<path d="M15.9975 14.8575H18.285V15.9975H15.9975V14.8575Z" fill="black"/>
<path d="M15.9975 12.57H17.1375V13.71H15.9975V12.57Z" fill="black"/>
<path d="M13.71 13.71H15.9975V14.8575H13.71V13.71Z" fill="black"/>
<path d="M11.4225 14.8575H13.71V15.9975H11.4225V14.8575Z" fill="black"/>
<path d="M12.57 12.57H13.71V13.71H12.57V12.57Z" fill="black"/>
<path d="M17.1375 10.2825V12.57H18.285V9.14248H17.1375V7.99498H15.9975V6.85498H13.71V7.99498H12.57V9.14248H11.4225V12.57H12.57V10.2825H17.1375Z" fill="black"/>
<path d="M4.5675 13.71H6.855V14.8575H4.5675V13.71Z" fill="black"/>
<path d="M4.5675 6.85498H6.855V7.99498H4.5675V6.85498Z" fill="black"/>
</svg>
