<svg width="24" height="24" viewBox="0 0 24 24" fill="none" xmlns="http://www.w3.org/2000/svg">
<path d="M22.86 5.71873H1.1475V2.29123H0V21.7162H1.1475V6.85873H22.86V21.7162H24V2.29123H22.86V5.71873Z" fill="black"/>
<path d="M1.14749 21.7162H22.86V22.8562H1.14749V21.7162Z" fill="black"/>
<path d="M19.4325 14.8612H20.5725V18.2887H19.4325V14.8612Z" fill="black"/>
<path d="M18.285 18.2887H19.4325V19.4287H18.285V18.2887Z" fill="black"/>
<path d="M18.285 13.7137H19.4325V14.8612H18.285V13.7137Z" fill="black"/>
<path d="M14.8575 19.4287H18.285V20.5762H14.8575V19.4287Z" fill="black"/>
<path d="M18.285 13.7137V12.5737H17.145V8.00623H3.42749V14.8612H5.71499V13.7137H4.57499V9.14622H16.005V12.5737H14.8575V13.7137H18.285Z" fill="black"/>
<path d="M13.7175 18.2887H14.8575V19.4287H13.7175V18.2887Z" fill="black"/>
<path d="M13.7175 13.7137H14.8575V14.8612H13.7175V13.7137Z" fill="black"/>
<path d="M12.57 14.8612H13.7175V18.2887H12.57V14.8612Z" fill="black"/>
<path d="M6.85501 3.43124H8.00251V4.57124H6.85501V3.43124Z" fill="black"/>
<path d="M4.57499 16.0012V17.1487H3.42749V18.2887H11.43V14.8612H10.29V13.7137H9.14249V12.5737H8.00249V13.7137H6.85499V14.8612H5.71499V16.0012H4.57499Z" fill="black"/>
<path d="M4.57501 3.43124H5.71501V4.57124H4.57501V3.43124Z" fill="black"/>
<path d="M2.28751 3.43124H3.42751V4.57124H2.28751V3.43124Z" fill="black"/>
<path d="M1.14749 1.14374H22.86V2.29124H1.14749V1.14374Z" fill="black"/>
</svg>
