<svg width="32" height="32" viewBox="0 0 32 32" fill="none" xmlns="http://www.w3.org/2000/svg">
<rect x="3.75" y="14.25" width="7" height="5.25" fill="white"/>
<rect x="7.25" y="5.5" width="3.5" height="3.5" fill="white"/>
<rect x="9" y="9" width="3.5" height="3.5" fill="white"/>
<rect x="10.75" y="12.5" width="12.25" height="17.5" fill="white"/>
<rect x="7.25" y="19.5" width="3.5" height="5.25" fill="white"/>
<rect x="14.25" y="3.75" width="8.75" height="8.75" fill="white"/>
<rect x="23" y="14.25" width="3.5" height="10.5" fill="white"/>
<rect x="24.75" y="9" width="3.5" height="7" fill="white"/>
<rect x="10.75" y="28.25" width="1.75" height="1.75" fill="black"/>
<rect x="10.75" y="26.5" width="1.75" height="1.75" fill="black"/>
<rect x="9" y="24.75" width="1.75" height="1.75" fill="black"/>
<rect x="7.25" y="23" width="1.75" height="1.75" fill="black"/>
<rect x="5.5" y="21.25" width="1.75" height="1.75" fill="black"/>
<rect x="5.5" y="19.5" width="1.75" height="1.75" fill="black"/>
<rect x="3.75" y="17.75" width="1.75" height="1.75" fill="black"/>
<rect x="2" y="16" width="1.75" height="1.75" fill="black"/>
<rect x="2" y="14.25" width="1.75" height="1.75" fill="black"/>
<rect x="3.75" y="12.5" width="1.75" height="1.75" fill="black"/>
<rect x="5.5" y="12.5" width="1.75" height="1.75" fill="black"/>
<rect x="7.25" y="14.25" width="1.75" height="1.75" fill="black"/>
<rect x="9" y="14.25" width="1.75" height="1.75" fill="black"/>
<rect x="9" y="16" width="1.75" height="1.75" fill="black"/>
<rect x="9" y="12.5" width="1.75" height="1.75" fill="black"/>
<rect x="7.25" y="10.75" width="1.75" height="1.75" fill="black"/>
<rect x="7.25" y="9" width="1.75" height="1.75" fill="black"/>
<rect x="5.5" y="7.25" width="1.75" height="1.75" fill="black"/>
<rect x="5.5" y="5.5" width="1.75" height="1.75" fill="black"/>
<rect x="7.25" y="3.75" width="1.75" height="1.75" fill="black"/>
<rect x="9" y="3.75" width="1.75" height="1.75" fill="black"/>
<rect x="10.75" y="5.5" width="1.75" height="1.75" fill="black"/>
<rect x="10.75" y="7.25" width="1.75" height="1.75" fill="black"/>
<rect x="12.5" y="5.5" width="1.75" height="1.75" fill="black"/>
<rect x="12.5" y="3.75" width="1.75" height="1.75" fill="black"/>
<rect x="14.25" y="2" width="1.75" height="1.75" fill="black"/>
<rect x="16" y="2" width="1.75" height="1.75" fill="black"/>
<rect x="17.75" y="3.75" width="1.75" height="1.75" fill="black"/>
<rect x="19.5" y="3.75" width="1.75" height="1.75" fill="black"/>
<rect x="21.25" y="3.75" width="1.75" height="1.75" fill="black"/>
<rect x="23" y="5.5" width="1.75" height="1.75" fill="black"/>
<rect x="24.75" y="9" width="1.75" height="1.75" fill="black"/>
<rect x="26.5" y="7.25" width="1.75" height="1.75" fill="black"/>
<rect x="28.25" y="9" width="1.75" height="1.75" fill="black"/>
<rect x="17.75" y="5.5" width="1.75" height="1.75" fill="black"/>
<rect x="23" y="7.25" width="1.75" height="1.75" fill="black"/>
<rect x="17.75" y="7.25" width="1.75" height="1.75" fill="black"/>
<rect x="23" y="9" width="1.75" height="1.75" fill="black"/>
<rect x="28.25" y="10.75" width="1.75" height="1.75" fill="black"/>
<rect x="26.5" y="16" width="1.75" height="1.75" fill="black"/>
<rect x="23" y="24.75" width="1.75" height="1.75" fill="black"/>
<rect x="23" y="10.75" width="1.75" height="1.75" fill="black"/>
<rect x="17.75" y="9" width="1.75" height="1.75" fill="black"/>
<rect x="23" y="12.5" width="1.75" height="1.75" fill="black"/>
<rect x="28.25" y="12.5" width="1.75" height="1.75" fill="black"/>
<rect x="26.5" y="17.75" width="1.75" height="1.75" fill="black"/>
<rect x="23" y="26.5" width="1.75" height="1.75" fill="black"/>
<rect x="24.75" y="21.25" width="1.75" height="1.75" fill="black"/>
<rect x="17.75" y="10.75" width="1.75" height="1.75" fill="black"/>
<rect x="28.25" y="14.25" width="1.75" height="1.75" fill="black"/>
<rect x="26.5" y="19.5" width="1.75" height="1.75" fill="black"/>
<rect x="23" y="28.25" width="1.75" height="1.75" fill="black"/>
<rect x="24.75" y="23" width="1.75" height="1.75" fill="black"/>
<rect x="12.5" y="7.25" width="1.75" height="1.75" fill="black"/>
<rect x="12.5" y="9" width="1.75" height="1.75" fill="black"/>
<rect x="12.5" y="10.75" width="1.75" height="1.75" fill="black"/>
</svg>
