<svg width="136" height="64" viewBox="0 0 136 64" fill="none" xmlns="http://www.w3.org/2000/svg">
<path d="M35.5039 26.8355H20.5538V31.2715H31.1574C30.632 37.4809 25.4579 40.1461 20.5717 40.1461C19.0237 40.1529 17.49 39.8512 16.0599 39.2588C14.6298 38.6663 13.332 37.7949 12.2424 36.6954C11.1528 35.5959 10.2932 34.2903 9.71363 32.8549C9.13411 31.4195 8.84635 29.8831 8.86714 28.3353C8.86714 21.6197 14.0662 16.4492 20.586 16.4492C25.6156 16.4492 28.5793 19.6554 28.5793 19.6554L31.684 16.4385C31.684 16.4385 27.6957 12 20.4236 12C11.1634 12 4 19.8154 4 28.2564C4 36.528 10.7383 44.5941 20.6577 44.5941C29.3829 44.5941 35.7702 38.6164 35.7702 29.7777C35.7702 27.9125 35.4991 26.8355 35.4991 26.8355H35.5039Z" fill="#333333"/>
<path d="M47.7517 23.6221C41.6165 23.6221 37.2198 28.4188 37.2198 34.0108C37.2198 39.6875 41.4827 44.5726 47.8234 44.5726C53.5622 44.5726 58.2634 40.1867 58.2634 34.1326C58.2634 27.2068 52.7944 23.621 47.7517 23.621V23.6221ZM47.8114 27.737C50.8277 27.737 53.6864 30.1766 53.6864 34.1063C53.6864 37.9513 50.8397 40.4613 47.7971 40.4613C44.4536 40.4613 41.8266 37.7841 41.8266 34.0753C41.8266 30.4452 44.4298 27.737 47.821 27.737H47.8114Z" fill="#333333"/>
<path d="M70.6557 23.6221C64.5204 23.6221 60.1238 28.4188 60.1238 34.0108C60.1238 39.6875 64.3867 44.5726 70.7274 44.5726C76.4662 44.5726 81.1674 40.1867 81.1674 34.1326C81.1674 27.2068 75.6984 23.621 70.6557 23.621V23.6221ZM70.7154 27.737C73.7317 27.737 76.5904 30.1766 76.5904 34.1063C76.5904 37.9513 73.7437 40.4613 70.7011 40.4613C67.3576 40.4613 64.7306 37.7841 64.7306 34.0753C64.7306 30.4452 67.3337 27.737 70.725 27.737H70.7154Z" fill="#333333"/>
<path d="M93.1203 23.6341C87.4889 23.6341 83.0636 28.5657 83.0636 34.1016C83.0636 40.4064 88.1946 44.5881 93.0224 44.5881C96.0076 44.5881 97.5958 43.4024 98.754 42.0423V44.1081C98.754 47.7226 96.5593 49.8875 93.2469 49.8875C90.0467 49.8875 88.4418 47.5077 87.8734 46.1584L83.8469 47.8301C85.2751 50.8512 88.1505 54 93.2803 54C98.8926 54 103.146 50.4738 103.146 43.0776V24.2634H98.7708V26.0378C97.4214 24.581 95.573 23.6341 93.1227 23.6341H93.1203ZM93.5263 27.7418C96.287 27.7418 99.1218 30.0989 99.1218 34.1242C99.1218 38.2164 96.2918 40.4709 93.4654 40.4709C90.4634 40.4709 87.6704 38.0349 87.6704 34.1625C87.6704 30.1407 90.5721 27.7418 93.5263 27.7418Z" fill="#333333"/>
<path d="M122.701 23.609C117.389 23.609 112.929 27.8361 112.929 34.0693C112.929 40.6679 117.9 44.581 123.198 44.581C127.631 44.581 130.363 42.1569 131.975 39.9837L128.353 37.574C127.414 39.0308 125.842 40.4577 123.221 40.4577C120.276 40.4577 118.922 38.8457 118.083 37.2814L132.129 31.4542L131.413 29.7467C130.056 26.4032 126.889 23.609 122.701 23.609ZM122.883 27.6379C124.797 27.6379 126.174 28.6553 126.759 29.8756L117.378 33.7959C116.972 30.7605 119.85 27.6379 122.871 27.6379H122.883Z" fill="#333333"/>
<path d="M106.222 43.96H110.836V13.0842H106.222V43.96Z" fill="#333333"/>
</svg>
