<svg width="85" height="64" viewBox="0 0 85 64" fill="none" xmlns="http://www.w3.org/2000/svg">
<g clip-path="url(#clip0_11_2268)">
<path d="M4.28711 49.3106V61.6493H6.88787V57.0847H8.90078L11.555 61.6493H14.4942L11.5194 56.7637C12.9801 56.2288 13.8885 55.052 13.8885 53.1976C13.8885 50.6122 12.1072 49.3106 9.453 49.3106H4.28711ZM6.87005 51.6642H9.50644C10.6287 51.6642 11.4125 52.1456 11.4125 53.2511C11.4125 54.3744 10.6287 54.8737 9.50644 54.8737H6.87005V51.6642Z" fill="#222222"/>
<path d="M24.2827 49.3106L19.758 61.6493H22.5013L23.3029 59.3135H28.0413L28.8607 61.6493H31.6218L27.0437 49.3106H24.2827ZM25.6543 52.4487L27.2575 57.0312H24.0867L25.6543 52.4487Z" fill="#222222"/>
<path d="M37.7046 49.3106V61.6493H40.3054V54.1426L45.2575 61.6493H47.6267V49.3106H45.0438V56.8707L40.3054 49.3106H37.7046Z" fill="#222222"/>
<path d="M60.542 54.8559V57.0847H62.7686C62.5905 58.8321 61.5039 59.4918 60.1679 59.4918C58.2262 59.4918 57.0149 58.1545 57.0149 55.4799C57.0149 52.8232 58.2084 51.4859 60.1679 51.4859C61.5395 51.4859 62.3233 52.1456 62.9824 53.2155L64.8706 51.8069C64.0512 50.2199 62.5549 49.0788 60.1857 49.0788C56.8546 49.0788 54.4142 51.3254 54.4142 55.5156C54.4142 59.6879 56.8368 61.8811 60.1679 61.8811C63.4456 61.8811 65.2982 59.7236 65.2982 56.5141V54.8559H60.542Z" fill="#222222"/>
<path d="M72.1485 49.3106V61.6493H80.3961V59.2422H74.7493V56.5141H78.6682V54.1961H74.7493V51.7177H80.2714V49.3106H72.1485Z" fill="#222222"/>
<path fill-rule="evenodd" clip-rule="evenodd" d="M37.0084 25.2205C38.662 24.8162 40.0453 23.8255 41.0364 22.761C41.79 21.9389 42.442 21.0077 43.0679 20.1138L43.0904 20.0817C43.2672 19.8292 43.442 19.5799 43.6163 19.3371C45.1922 17.1412 46.7234 15.4999 49.8056 15.4999C51.8405 15.4999 54.5406 16.8127 57.6155 19.1406C60.6522 21.4361 63.7594 24.4857 66.6168 27.5935C69.4724 30.6979 72.0058 33.7908 73.8441 36.13C74.5129 36.981 75.0843 37.7256 75.5421 38.3307L75.5571 38.3506C75.9121 38.4688 76.2607 38.5475 76.5791 38.5607C77.2293 38.5876 77.9966 38.3518 78.7123 38.0391C78.5099 37.7558 78.2978 37.4613 78.1844 37.3097C77.6691 36.6203 76.9158 35.6281 75.9854 34.444C74.13 32.0831 71.5288 28.9091 68.6212 25.7466C65.7155 22.5875 62.4307 19.3703 59.2589 16.9656C56.1256 14.5935 52.8003 12.7728 49.8056 12.7728C45.3434 12.7728 43.1022 15.3793 41.4038 17.746C41.1979 18.0331 40.9998 18.3167 40.806 18.5943L40.7957 18.6091C40.2043 19.4571 39.6521 20.2483 39.0357 20.9101C38.2293 21.7926 37.53 22.3358 36.4067 22.5608C35.1984 22.8472 34.4859 22.8108 33.7676 22.6104C33.1053 22.447 32.6092 22.1374 31.968 21.7371L31.9152 21.7042C31.2487 21.2884 30.4304 20.7781 29.4352 20.4571C28.4692 20.1665 27.1471 20.0605 25.6439 20.3518C23.0638 20.8758 19.8126 22.9421 16.8074 25.318C13.7562 27.7322 10.6947 30.6878 8.53965 33.1706C7.15576 34.7749 6.27348 36.2676 5.78782 37.2803L5.61481 37.7516C6.37536 38.1572 7.26223 38.5304 7.99124 38.5607C8.06377 38.5637 8.13776 38.5634 8.21297 38.5601L8.24535 38.4574C8.67841 37.5487 9.3679 36.3668 10.5969 34.9584C12.6711 32.5648 15.5484 29.786 18.4958 27.458C21.4892 25.0917 24.2967 23.408 26.1856 23.0243C27.3049 22.783 27.9492 22.8433 28.6307 23.0625C29.2228 23.2338 29.6984 23.5321 30.2911 23.9039L30.4751 24.019C31.1566 24.4442 32.0194 24.9513 33.0642 25.2449C34.0705 25.506 35.4401 25.5634 37.0084 25.2205Z" fill="#222222"/>
<path fill-rule="evenodd" clip-rule="evenodd" d="M5.60028 37.7438C6.36405 38.1524 7.25759 38.5303 7.99125 38.5607C8.06973 38.5639 8.14992 38.5634 8.23152 38.5593C8.26903 38.4819 8.30843 38.401 8.34975 38.3166C8.80838 37.3797 9.48048 36.0587 10.3687 34.4575C12.1537 31.2377 14.7412 27.0017 18.0779 22.7383C24.7936 14.1503 34.1583 5.95531 45.2999 5.95531C56.3598 5.95531 64.0471 14.0545 69.0676 22.5896C71.5683 26.8346 73.3238 31.0455 74.4826 34.2589C75.0587 35.855 75.4727 37.169 75.7492 38.1037C75.7842 38.2223 75.817 38.3338 75.8471 38.4383C76.1008 38.507 76.3479 38.5511 76.5791 38.5607C77.19 38.586 77.9043 38.3794 78.5819 38.095C78.5217 37.88 78.4481 37.6224 78.3615 37.3296C78.078 36.3715 77.6395 34.9814 77.0451 33.3327C75.8626 30.0562 74.0045 25.6141 71.4152 21.2061C66.256 12.4351 57.8587 3.2283 45.2999 3.2283C32.8227 3.2283 22.7499 12.3394 15.9327 21.0574C12.5031 25.447 9.80015 29.864 7.98668 33.1341C7.07534 34.7777 6.37132 36.1607 5.90327 37.1167C5.78929 37.3495 5.68801 37.5597 5.60028 37.7438Z" fill="#222222"/>
<path fill-rule="evenodd" clip-rule="evenodd" d="M32.1694 6.7039C30.5326 5.10691 28.7253 4.23848 26.3676 4.47985C23.784 4.74432 21.279 6.73237 18.9224 10.0516C16.567 13.3589 14.6072 17.6303 12.985 21.9729C11.3625 26.3111 10.1409 30.5897 9.31327 33.8226C8.90088 35.4333 8.59226 36.7631 8.38412 37.7015C8.30768 38.0459 8.24573 38.3333 8.19762 38.5608C8.1277 38.5634 8.05885 38.5635 7.99126 38.5607C7.2535 38.5301 6.35406 38.1481 5.58749 37.737C5.62695 37.5535 5.67267 37.3437 5.72439 37.1103C5.9356 36.1589 6.25425 34.7862 6.67421 33.1456C7.51147 29.8761 8.77502 25.4577 10.4334 21.0173C12.0923 16.5814 14.2091 11.9928 16.7016 8.47184C19.1931 4.96269 22.3076 2.1542 26.0903 1.76698C29.4434 1.42374 32.0108 2.7409 34.0711 4.75118C36.0366 6.68485 37.6489 9.34866 39.1519 11.9051L39.4031 12.3325L39.4035 12.3331C40.8134 14.7351 42.1593 17.028 43.775 18.757C45.4216 20.5317 47.2136 21.5832 49.4912 21.5832C53.4509 21.5832 56.109 18.886 58.9811 15.9716L58.9812 15.9714C59.2184 15.7306 59.4573 15.4882 59.6985 15.2457C61.1788 13.7575 62.821 12.2107 64.736 11.4927C66.8057 10.7165 69.0129 10.9604 71.4197 12.5866C76.8577 16.2607 78.5461 23.2097 78.9808 28.8308C79.1989 31.6808 79.1062 34.3529 78.9599 36.2549C78.9077 36.9288 78.8482 37.5225 78.7935 38.0032C78.0549 38.3336 77.2539 38.5886 76.5791 38.5607C76.3914 38.5529 76.1933 38.5224 75.9897 38.4745C76.0006 38.3943 76.0126 38.3052 76.0251 38.2066C76.0914 37.6877 76.1733 36.9582 76.2435 36.0449C76.3861 34.1996 76.4752 31.7378 76.2646 29.0413C75.8413 23.5693 74.229 17.7749 69.8956 14.8469C68.111 13.6412 66.821 13.6229 65.6917 14.0464C64.4073 14.528 63.1483 15.6427 61.6291 17.1698C61.3808 17.4196 61.1262 17.6803 60.8649 17.9481L60.854 17.9591L60.8538 17.9594C58.129 20.7514 54.656 24.3102 49.4912 24.3102C46.2153 24.3102 43.7502 22.7376 41.7787 20.6128C39.9305 18.6086 38.398 16.0009 36.9431 13.5248L36.8039 13.2881C35.3075 10.7425 33.9006 8.3775 32.1694 6.7039Z" fill="#222222"/>
</g>
<defs>
<clipPath id="clip0_11_2268">
<rect width="85" height="64" fill="white"/>
</clipPath>
</defs>
</svg>
