<svg width="102" height="102" viewBox="0 0 102 102" fill="none" xmlns="http://www.w3.org/2000/svg">
<circle cx="8.5" cy="8.5" r="4.5" fill="#B84C4C"/>
<circle cx="25.5" cy="8.5" r="4.5" fill="#B84C4C"/>
<circle cx="42.5" cy="8.5" r="4.5" fill="#B84C4C"/>
<circle cx="59.5" cy="8.5" r="4.5" fill="#B84C4C"/>
<circle cx="76.5" cy="8.5" r="4.5" fill="#B84C4C"/>
<circle cx="93.5" cy="8.5" r="4.5" fill="#B84C4C"/>
<circle cx="8.5" cy="25.5" r="4.5" fill="#B84C4C"/>
<circle cx="25.5" cy="25.5" r="4.5" fill="#B84C4C"/>
<circle cx="42.5" cy="25.5" r="4.5" fill="#B84C4C"/>
<circle cx="59.5" cy="25.5" r="4.5" fill="#B84C4C"/>
<circle cx="76.5" cy="25.5" r="4.5" fill="#B84C4C"/>
<circle cx="93.5" cy="25.5" r="4.5" fill="#B84C4C"/>
<circle cx="8.5" cy="42.5" r="4.5" fill="#B84C4C"/>
<circle cx="25.5" cy="42.5" r="4.5" fill="#B84C4C"/>
<circle cx="42.5" cy="42.5" r="4.5" fill="#B84C4C"/>
<circle cx="59.5" cy="42.5" r="4.5" fill="#B84C4C"/>
<circle cx="76.5" cy="42.5" r="4.5" fill="#B84C4C"/>
<circle cx="93.5" cy="42.5" r="4.5" fill="#B84C4C"/>
<circle cx="8.5" cy="59.5" r="4.5" fill="#B84C4C"/>
<circle cx="25.5" cy="59.5" r="4.5" fill="#B84C4C"/>
<circle cx="42.5" cy="59.5" r="4.5" fill="#B84C4C"/>
<circle cx="59.5" cy="59.5" r="4.5" fill="#B84C4C"/>
<circle cx="76.5" cy="59.5" r="4.5" fill="#B84C4C"/>
<circle cx="93.5" cy="59.5" r="4.5" fill="#B84C4C"/>
<circle cx="8.5" cy="76.5" r="4.5" fill="#B84C4C"/>
<circle cx="25.5" cy="76.5" r="4.5" fill="#B84C4C"/>
<circle cx="42.5" cy="76.5" r="4.5" fill="#B84C4C"/>
<circle cx="59.5" cy="76.5" r="4.5" fill="#B84C4C"/>
<circle cx="76.5" cy="76.5" r="4.5" fill="#B84C4C"/>
<circle cx="93.5" cy="76.5" r="4.5" fill="#B84C4C"/>
<circle cx="8.5" cy="93.5" r="4.5" fill="#B84C4C"/>
<circle cx="25.5" cy="93.5" r="4.5" fill="#B84C4C"/>
<circle cx="42.5" cy="93.5" r="4.5" fill="#B84C4C"/>
<circle cx="59.5" cy="93.5" r="4.5" fill="#B84C4C"/>
<circle cx="76.5" cy="93.5" r="4.5" fill="#B84C4C"/>
<circle cx="93.5" cy="93.5" r="4.5" fill="#B84C4C"/>
</svg>
